<svg viewBox="0 0 800 500" fill="none" xmlns="http://www.w3.org/2000/svg" aria-hidden="true">
  <!-- Input rays (diverse sources → left face of prism) -->
  <g stroke="#efebea" stroke-width="1.5" stroke-linecap="round">
    <line x1="15" y1="30" x2="340" y2="250" opacity="0.04"/>
    <line x1="50" y1="56" x2="340" y2="250" opacity="0.10"/>
    <line x1="25" y1="82" x2="340" y2="250" opacity="0.19"/>
    <line x1="55" y1="108" x2="340" y2="250" opacity="0.30"/>
    <line x1="10" y1="134" x2="340" y2="250" opacity="0.42"/>
    <line x1="40" y1="160" x2="340" y2="250" opacity="0.54"/>
    <line x1="30" y1="186" x2="340" y2="250" opacity="0.66"/>
    <line x1="60" y1="212" x2="340" y2="250" opacity="0.80"/>
    <line x1="20" y1="238" x2="340" y2="250" opacity="0.92"/>
    <line x1="45" y1="262" x2="340" y2="250" opacity="0.92"/>
    <line x1="15" y1="288" x2="340" y2="250" opacity="0.80"/>
    <line x1="55" y1="314" x2="340" y2="250" opacity="0.66"/>
    <line x1="35" y1="340" x2="340" y2="250" opacity="0.54"/>
    <line x1="10" y1="366" x2="340" y2="250" opacity="0.42"/>
    <line x1="50" y1="392" x2="340" y2="250" opacity="0.30"/>
    <line x1="25" y1="418" x2="340" y2="250" opacity="0.19"/>
    <line x1="60" y1="444" x2="340" y2="250" opacity="0.10"/>
    <line x1="20" y1="470" x2="340" y2="250" opacity="0.04"/>
  </g>

  <!-- Output rays (right face of prism → unified interface) -->
  <g stroke="#efebea" stroke-width="1.5" stroke-linecap="round">
    <line x1="460" y1="250" x2="780" y2="30" opacity="0.04"/>
    <line x1="460" y1="250" x2="780" y2="56" opacity="0.10"/>
    <line x1="460" y1="250" x2="780" y2="82" opacity="0.19"/>
    <line x1="460" y1="250" x2="780" y2="108" opacity="0.30"/>
    <line x1="460" y1="250" x2="780" y2="134" opacity="0.42"/>
    <line x1="460" y1="250" x2="780" y2="160" opacity="0.54"/>
    <line x1="460" y1="250" x2="780" y2="186" opacity="0.66"/>
    <line x1="460" y1="250" x2="780" y2="212" opacity="0.80"/>
    <line x1="460" y1="250" x2="780" y2="238" opacity="0.92"/>
    <line x1="460" y1="250" x2="780" y2="262" opacity="0.92"/>
    <line x1="460" y1="250" x2="780" y2="288" opacity="0.80"/>
    <line x1="460" y1="250" x2="780" y2="314" opacity="0.66"/>
    <line x1="460" y1="250" x2="780" y2="340" opacity="0.54"/>
    <line x1="460" y1="250" x2="780" y2="366" opacity="0.42"/>
    <line x1="460" y1="250" x2="780" y2="392" opacity="0.30"/>
    <line x1="460" y1="250" x2="780" y2="418" opacity="0.19"/>
    <line x1="460" y1="250" x2="780" y2="444" opacity="0.10"/>
    <line x1="460" y1="250" x2="780" y2="470" opacity="0.04"/>
  </g>

  <!-- Triangle (prism) -->
  <polygon points="400,80 280,420 520,420" fill="#efebea"/>
</svg>
